<svg xmlns="http://www.w3.org/2000/svg" width="29.984" height="19.734" viewBox="0 0 29.984 19.734">
  <g id="close-quote" transform="translate(32.819 70.046) rotate(180)" style="isolation: isolate">
    <g id="Group_1" data-name="Group 1" style="isolation: isolate">
      <path id="Path_1" data-name="Path 1" d="M12.741,50.312v1.606a14.069,14.069,0,0,0-4.8,3.652,6.768,6.768,0,0,0-1.472,4.188,3.374,3.374,0,0,0,.382,1.874,1.073,1.073,0,0,0,.841.5,4.191,4.191,0,0,0,1.339-.306,4.761,4.761,0,0,1,1.53-.305A3.711,3.711,0,0,1,13.3,62.7a3.893,3.893,0,0,1,1.167,2.83,4.227,4.227,0,0,1-1.415,3.174,4.871,4.871,0,0,1-3.481,1.339A6.226,6.226,0,0,1,4.9,67.809,7.794,7.794,0,0,1,2.835,62.32a11.477,11.477,0,0,1,2.543-7.132A14.7,14.7,0,0,1,12.741,50.312Zm18.243,0v1.606Q27.12,54.1,25.916,55.876a7.157,7.157,0,0,0-1.2,4.111,2.777,2.777,0,0,0,.383,1.607,1.184,1.184,0,0,0,.918.535,4.119,4.119,0,0,0,1.224-.306,4.889,4.889,0,0,1,1.682-.305,3.752,3.752,0,0,1,2.754,1.147,3.8,3.8,0,0,1,1.147,2.792,4.273,4.273,0,0,1-1.471,3.212,5.048,5.048,0,0,1-3.577,1.377,6.155,6.155,0,0,1-4.57-2.18,7.731,7.731,0,0,1-2.047-5.508,11.707,11.707,0,0,1,2.582-7.342A13.793,13.793,0,0,1,30.984,50.312Z"/>
    </g>
  </g>
</svg>
