<svg xmlns="http://www.w3.org/2000/svg" xmlns:xlink="http://www.w3.org/1999/xlink" width="34.923" height="36" viewBox="0 0 34.923 36">
  <defs>
    <linearGradient id="linear-gradient" x1="0.807" y1="-1.822" x2="-0.437" y2="2.133" gradientUnits="objectBoundingBox">
      <stop offset="0" stop-color="#ffda5f"/>
      <stop offset="1" stop-color="#ffa84d"/>
    </linearGradient>
  </defs>
  <g id="engine" transform="translate(-7.656)">
    <g id="Group_6" data-name="Group 6" transform="translate(21.954 21.094)">
      <g id="Group_5" data-name="Group 5">
        <path id="Path_3" data-name="Path 3" d="M214.164,300a3.164,3.164,0,1,0,3.164,3.164A3.168,3.168,0,0,0,214.164,300Zm0,4.219a1.055,1.055,0,1,1,1.055-1.055A1.056,1.056,0,0,1,214.164,304.219Z" transform="translate(-211 -300)" fill="url(#linear-gradient)"/>
      </g>
    </g>
    <g id="Group_8" data-name="Group 8" transform="translate(7.656)">
      <g id="Group_7" data-name="Group 7">
        <path id="Path_4" data-name="Path 4" d="M42.271,13.583,39.288,10.6h0a1.055,1.055,0,0,0-1.489,0h0l-2.237,2.237L29.05,6.328h.287a1.055,1.055,0,0,0,1.055-1.055,5.273,5.273,0,0,0-10.547,0A1.055,1.055,0,0,0,20.9,6.328h.287l-6.509,6.509L12.44,10.6a1.055,1.055,0,0,0-1.492,0L7.965,13.583a1.055,1.055,0,0,0,0,1.492l2.366,2.366a3.163,3.163,0,0,0,2.679,4.522,3.141,3.141,0,0,0,.922,2.061,3.178,3.178,0,0,0,3.811.511v10.41A1.049,1.049,0,0,0,18.79,36H31.446A1.055,1.055,0,0,0,32.5,34.945V24.535a3.163,3.163,0,0,0,4.726-2.574,3.161,3.161,0,0,0,2.679-4.521l2.366-2.366A1.055,1.055,0,0,0,42.271,13.583ZM28.282,8.543,32.7,12.965a3.172,3.172,0,0,0-1.493,1.49l-2.929-2.929Zm-1.848,4.113c.055.063-.216-.211,3.287,3.292a3.172,3.172,0,0,0-1.54,1.593,7.4,7.4,0,0,0-6.128,0,3.188,3.188,0,0,0-1.537-1.591c3.5-3.5,3.231-3.228,3.286-3.291Zm-2.37-2.109V6.328H26.18v4.219Zm1.055-8.437A3.17,3.17,0,0,1,28.1,4.219H22.135A3.169,3.169,0,0,1,25.118,2.109ZM21.961,8.544v2.983l-2.936,2.929a3.172,3.172,0,0,0-1.493-1.49ZM10.2,14.329l1.492-1.492,1.492,1.492L11.694,15.82Zm2.237,5.22a1.056,1.056,0,0,1,0-1.491h0l2.983-2.983a1.055,1.055,0,1,1,1.492,1.492l-2.983,2.983A1.056,1.056,0,0,1,12.44,19.549Zm6.1,1.36-1.623,1.623a1.055,1.055,0,1,1-1.492-1.492l2.983-2.983a1.055,1.055,0,0,1,1.8.687,7.435,7.435,0,0,0-1.3,1.523A7.35,7.35,0,0,0,18.538,20.909ZM30.4,33.891H19.845V24.258a5.277,5.277,0,0,1,10.554,0Zm4.415-11.358a1.056,1.056,0,0,1-1.492,0l-1.627-1.627a7.427,7.427,0,0,0-1.664-2.154,1.055,1.055,0,0,1,1.8-.695l2.983,2.983A1.054,1.054,0,0,1,34.813,22.532ZM37.8,19.549a1.056,1.056,0,0,1-1.492,0l-2.983-2.983a1.055,1.055,0,0,1,1.491-1.492L36.3,16.566,37.8,18.058A1.056,1.056,0,0,1,37.8,19.549Zm.746-3.729L37.05,14.329l1.492-1.492,1.492,1.492Z" transform="translate(-7.656)" fill="url(#linear-gradient)"/>
      </g>
    </g>
  </g>
</svg>
