<svg id="event" xmlns="http://www.w3.org/2000/svg" xmlns:xlink="http://www.w3.org/1999/xlink" width="36" height="36" viewBox="0 0 36 36">
  <defs>
    <linearGradient id="linear-gradient" x1="1.086" y1="-0.142" x2="-0.113" y2="1.198" gradientUnits="objectBoundingBox">
      <stop offset="0" stop-color="#f89365"/>
      <stop offset="1" stop-color="#de5f79"/>
    </linearGradient>
  </defs>
  <g id="Group_10" data-name="Group 10" transform="translate(10.113 12.656)">
    <g id="Group_9" data-name="Group 9">
      <path id="Path_5" data-name="Path 5" d="M159.267,185.634a1.055,1.055,0,0,0-.851-.718l-4.045-.588-1.812-3.734a1.055,1.055,0,0,0-1.9,0l-1.811,3.732-4.113.589a1.055,1.055,0,0,0-.579,1.807l2.985,2.849-.753,4.089a1.055,1.055,0,0,0,1.522,1.128l3.694-1.909,3.626,1.906a1.055,1.055,0,0,0,1.531-1.109l-.693-4.1L159,186.715A1.055,1.055,0,0,0,159.267,185.634Zm-5.066,2.814a1.055,1.055,0,0,0-.3.931l.431,2.549-2.227-1.171a1.055,1.055,0,0,0-.975,0l-2.272,1.174.466-2.534a1.055,1.055,0,0,0-.309-.954l-1.827-1.744,2.518-.361a1.055,1.055,0,0,0,.8-.584l1.107-2.282,1.107,2.282a1.055,1.055,0,0,0,.8.583L156,186.7Z" transform="translate(-143.831 -180.001)" fill="url(#linear-gradient)"/>
    </g>
  </g>
  <g id="Group_12" data-name="Group 12">
    <g id="Group_11" data-name="Group 11">
      <path id="Path_6" data-name="Path 6" d="M32.836,2.109H31.781V1.055a1.055,1.055,0,0,0-2.109,0V2.109H25.383V1.055a1.055,1.055,0,0,0-2.109,0V2.109H19.055V1.055a1.055,1.055,0,0,0-2.109,0V2.109H12.656V1.055a1.055,1.055,0,0,0-2.109,0V2.109H6.328V1.055a1.055,1.055,0,0,0-2.109,0V2.109H3.164A3.168,3.168,0,0,0,0,5.273V32.836A3.168,3.168,0,0,0,3.164,36H32.836A3.168,3.168,0,0,0,36,32.836V5.273A3.168,3.168,0,0,0,32.836,2.109Zm1.055,30.727a1.056,1.056,0,0,1-1.055,1.055H3.164a1.056,1.056,0,0,1-1.055-1.055V31.781H33.891Zm0-3.164H2.109V10.547H33.891Zm0-21.234H2.109V5.273A1.056,1.056,0,0,1,3.164,4.219H4.219V5.273a1.055,1.055,0,0,0,2.109,0V4.219h4.219V5.273a1.055,1.055,0,0,0,2.109,0V4.219h4.289V5.273a1.055,1.055,0,0,0,2.109,0V4.219h4.219V5.273a1.055,1.055,0,0,0,2.109,0V4.219h4.289V5.273a1.055,1.055,0,0,0,2.109,0V4.219h1.055a1.056,1.056,0,0,1,1.055,1.055Z" fill="url(#linear-gradient)"/>
    </g>
  </g>
</svg>
