<svg id="gauge" xmlns="http://www.w3.org/2000/svg" xmlns:xlink="http://www.w3.org/1999/xlink" width="36" height="36" viewBox="0 0 36 36">
  <defs>
    <linearGradient id="linear-gradient" x1="0.768" y1="0.074" x2="0.174" y2="0.879" gradientUnits="objectBoundingBox">
      <stop offset="0" stop-color="#99e3ff"/>
      <stop offset="1" stop-color="#7cadff"/>
    </linearGradient>
  </defs>
  <g id="Group_14" data-name="Group 14">
    <g id="Group_13" data-name="Group 13">
      <path id="Path_7" data-name="Path 7" d="M18.07,0A18.041,18.041,0,0,0,0,17.93,18.167,18.167,0,0,0,18.07,36a18,18,0,0,0,0-36Zm0,33.9A15.9,15.9,0,1,1,33.9,17.93,16,16,0,0,1,18.07,33.9Z" fill="url(#linear-gradient)"/>
    </g>
  </g>
  <g id="Group_16" data-name="Group 16" transform="translate(4.219 4.219)">
    <g id="Group_15" data-name="Group 15">
      <path id="Path_8" data-name="Path 8" d="M73.852,60A13.836,13.836,0,0,0,60,73.711a13.979,13.979,0,0,0,4.016,9.836,1.055,1.055,0,0,0,1.492,0l1.5-1.5a1.055,1.055,0,0,0-1.492-1.492l-.714.714a11.893,11.893,0,0,1-2.641-6.508h1.008a1.055,1.055,0,0,0,0-2.109H62.158a11.478,11.478,0,0,1,2.659-6.348l.694.694A1.055,1.055,0,0,0,67,65.511l-.688-.688A11.765,11.765,0,0,1,72.8,62.157v1.007a1.055,1.055,0,0,0,2.109,0V62.158a11.545,11.545,0,0,1,6.2,2.511L72.02,71.131a3.263,3.263,0,0,0-1.473,2.58q0,.108.008.215a3.3,3.3,0,0,0,3.3,2.949,3.171,3.171,0,0,0,2.58-1.332l6.462-9.091A11.546,11.546,0,0,1,85.4,72.656H84.4a1.055,1.055,0,0,0,0,2.109h1.008a11.89,11.89,0,0,1-2.645,6.5l-.71-.71a1.055,1.055,0,0,0-1.492,1.492l1.491,1.491a1.055,1.055,0,0,0,1.492,0,13.975,13.975,0,0,0,4.02-9.832A13.723,13.723,0,0,0,73.852,60Zm.861,14.321a1.058,1.058,0,0,1-.861.445,1.193,1.193,0,0,1-1.2-1.055,1.245,1.245,0,0,1,.586-.861l5.085-3.614Z" transform="translate(-60 -60)" fill="url(#linear-gradient)"/>
    </g>
  </g>
  <g id="Group_18" data-name="Group 18" transform="translate(12.656 25.453)">
    <g id="Group_17" data-name="Group 17">
      <path id="Path_9" data-name="Path 9" d="M187.523,362h-4.359a3.164,3.164,0,0,0,0,6.328h4.359a3.164,3.164,0,0,0,0-6.328Zm0,4.219h-4.359a1.055,1.055,0,0,1,0-2.109h4.359a1.055,1.055,0,0,1,0,2.109Z" transform="translate(-180 -362)" fill="url(#linear-gradient)"/>
    </g>
  </g>
</svg>
